<svg xmlns="http://www.w3.org/2000/svg" width="1200" height="630" viewBox="0 0 1200 630" font-family="Helvetica, Arial, sans-serif">
  <defs>
    <radialGradient id="bg" cx="50%" cy="-10%" r="120%">
      <stop offset="0%" stop-color="#10243a"/>
      <stop offset="60%" stop-color="#0a0f16"/>
    </radialGradient>
  </defs>
  <rect width="1200" height="630" fill="url(#bg)"/>
  <!-- winding route -->
  <path d="M120 520 C120 380 420 420 600 360 C820 290 760 150 1080 140"
        fill="none" stroke="#34d399" stroke-width="8" stroke-linecap="round" stroke-dasharray="2 22" opacity="0.9"/>
  <circle cx="120" cy="520" r="14" fill="#34d399"/>
  <path d="M1080 90 C1056 90 1036 110 1036 138 C1036 176 1080 210 1080 210 C1080 210 1124 176 1124 138 C1124 110 1104 90 1080 90 Z" fill="#fbbf24"/>
  <circle cx="1080" cy="136" r="16" fill="#0a0f16"/>
  <!-- wordmark -->
  <text x="100" y="250" fill="#f4f6f8" font-size="120" font-weight="800" letter-spacing="2">D-TOURS</text>
  <text x="104" y="320" fill="#34d399" font-size="34" font-weight="700" letter-spacing="6">WITH SHOTGUN 🚐</text>
  <text x="104" y="400" fill="#9fb3c8" font-size="40" font-weight="500">Austin → Squamish · a climbing road trip</text>
  <text x="104" y="455" fill="#6b7f95" font-size="28" font-weight="500">live detours · the mixtape · follow along</text>
</svg>
